<svg xmlns="http://www.w3.org/2000/svg" viewBox="0 0 200 200">
  <!-- Background circle -->
  <circle cx="100" cy="100" r="85" fill="#D4E9A4" />
  
  <!-- Left Stalk -->
  <path d="M 70 40 Q 72 65 74 80 L 83 77 Q 80 50 82 35 Z" fill="#5EAC24" />
  <path d="M 74 84 Q 76 115 78 135 L 87 132 Q 85 105 83 81 Z" fill="#5EAC24" />
  <path d="M 78 139 Q 80 165 82 185 L 90 185 Q 89 160 88 136 Z" fill="#5EAC24" />

  <!-- Center Stalk -->
  <path d="M 94 45 Q 94 70 94 90 L 105 88 Q 106 65 106 43 Z" fill="#5EAC24" />
  <path d="M 94 93 Q 94 125 94 145 L 106 143 Q 106 115 106 91 Z" fill="#5EAC24" />
  <path d="M 94 149 Q 94 175 94 195 L 105 195 Q 106 175 106 147 Z" fill="#5EAC24" />

  <!-- Leaves with white outlines as in the reference -->
  <g stroke="#ffffff" stroke-width="4" stroke-linejoin="round">
    <!-- Top Left -->
    <path d="M 80 45 Q 50 35 55 65 Q 65 70 80 45" fill="#5EAC24" />
    <path d="M 75 70 Q 55 65 60 85 Q 75 80 75 70" fill="#5EAC24" />
    
    <!-- Top Right -->
    <path d="M 100 65 Q 125 35 140 55 Q 120 70 100 65" fill="#5EAC24" />
    <path d="M 105 80 Q 135 75 125 100 Q 115 90 105 80" fill="#5EAC24" />
    
    <!-- Bottom Right -->
    <path d="M 106 125 Q 145 105 130 145 Q 115 140 106 125" fill="#5EAC24" />
    <path d="M 106 150 Q 135 155 130 170 Q 115 160 106 150" fill="#5EAC24" />
    
    <!-- Bottom Left -->
    <path d="M 78 140 Q 50 145 60 165 Q 75 155 78 140" fill="#5EAC24" />
  </g>
</svg>
